<svg xmlns="http://www.w3.org/2000/svg" viewBox="0 0 824.86 1000.91"><title>corinthians-50</title><path d="M467.42,223.46c-12.16-.32-24.63,2.53-31.74,8.21-15.16-1.1-33.63,4.58-41.84,13.42-15.16,1.11-32.69,9.48-39.47,19.27-14.69,3.31-30.64,13.73-35.85,24.47-14,5.53-28.26,18.16-31.58,29.53-13.1,7.58-25.26,21.94-26.68,33.79-11.84,9.16-21.48,25.42-21.32,37.26-10.42,10.9-17.68,29-14.84,40.9-7.26,10.58-11.21,25.73-9.47,36.63H198.52a10.5,10.5,0,1,0,0,21H212.1v1.74H198.52a10.68,10.68,0,0,0-10.58,10.57,10.55,10.55,0,0,0,10.58,10.43H212.1v1.73H198.52a10.58,10.58,0,1,0,0,21.16H216.2c-3.47,11.37.79,29.21,9.48,41-2.05,11.69,5.21,28.9,15.47,39.64-.16,11.84,9.63,28.1,21.48,37.1,1.73,11.84,14.05,26.21,27.16,33.48,3.63,11.37,18,23.84,31.89,29,5.53,10.74,21.47,21.32,36.47,24.32,6.79,9.94,24.32,18,39.32,18.94,8.53,9,27.63,14.37,42.95,12.79,6.31,4.74,16.74,7.27,27,7.74v15.48c0,5.52,5.05,10.1,10.89,10.1,6,0,10.74-4.58,10.74-10.1v-15h2.05v15c0,5.52,4.74,10.1,10.9,10.1,5.84,0,10.73-4.58,10.73-10.1v-15h1.9v15c0,5.52,4.9,10.1,10.74,10.1,6.15,0,11-4.58,11-10.1V777.21c12,0,24.32-2.85,31.42-8.53,15.16,1.11,33.63-4.58,41.84-13.26,15.16-1.11,32.69-9.32,39.48-19.42,14.68-3.16,30.63-13.74,35.84-24.48,14-5.52,28.27-18.16,31.74-29.53,13-7.26,25.11-21.94,26.84-33.78,11.53-9.16,21.16-25.43,21-37.11,10.42-11.05,17.69-29.21,14.84-41.05,7.27-10.42,11.21-25.58,9.48-36.48h16.58a10.58,10.58,0,0,0,0-21.16h-15v-1.73h15a10.38,10.38,0,0,0,10.26-10.43,10.51,10.51,0,0,0-10.26-10.57h-15v-1.74h15a10.5,10.5,0,0,0,0-21H787.32c3.47-11.37-.79-29.21-9.16-41.21,1.74-11.53-5.21-28.9-15.79-39.63.16-11.85-9.63-28-21.47-37-1.74-11.69-14.06-26.37-27.16-33.63-3.48-11.37-18-23.85-31.9-29.06-5.37-10.74-21.47-21.31-36.15-24.31-7.11-9.79-24.64-18-39.64-18.79-8.52-9-27.63-14.53-42.79-13-6.47-4.58-16.58-7.27-26.84-7.42V207.2c0-5.69-4.9-10.11-11-10.11-5.84,0-10.74,4.58-10.74,10.11v15.47c-.32,0-.79-.16-1.26-.16a1,1,0,0,0-.64.16V207.2c0-5.69-4.89-10.11-10.73-10.11-6.16,0-10.9,4.58-10.9,10.11v15.47c-.47,0-.79-.16-1.1-.16s-.47.16-.95.16V207.2c0-5.69-4.74-10.11-10.74-10.11-5.84,0-10.89,4.58-10.89,10.11v16.26Zm31.11,144.48c.63,6.63,1.42,13.26,2.36,19.74,22.42-6,41.06-11.06,56.21,7.57-.31,3.64-.78,7.11-1.42,10.58-14.52-9.31-30.15-10.42-52.26-3,.79,4.58,1.74,9,2.84,13.42,16.42-4.58,29.69-7.1,47.69.32l-1.11,12.63c0,.95-.31,1.74-.31,2.69-15-5.06-27.64-5.22-42.48.15,1.42,5.85,3,11.53,4.74,17.37l.16.48-.16-.48c13.58-1.74,26.21-1.1,36.32,2.84-.32,4.74-.32,9.64-.48,14.37-26-13.89-92.84,9.79-128.53,34.74l-3.94-10.26-.64-1.58c-1.1.79-2.21,1.42-3.31,2.21,15.16,39.32,25.89,78.16,31.74,118.58L376.79,408l7.73-3.47-22.1-25.42a191.87,191.87,0,0,1,270.32-8.37c-25.27,6.32-47.37,13.58-69.48,28.26,1-31.26-26.21-38.05-56.68-32.68-2.69.47-5.37,1.1-8.05,1.58Zm-267,69.79c-.63-1.74-1.58-3.48-2.37-5.37-2.84-6.63-1.1-14.53,1.27-21.32l1.26-2.84A51.13,51.13,0,0,1,240.52,394a74.9,74.9,0,0,1,2.84,13.42c.63,5.84-1,11.84-2.84,17.53A112.83,112.83,0,0,1,233.1,441c-.47-1.1-1.11-2.21-1.58-3.31ZM446.1,610.31c16.27-12,36.79-23.84,60.48-34.74-5.06,20.37-5.69,36.48,4.1,49.74,12.32,16.42,38.53,9.63,60-2.68,41.21-23.85,68.37-46.27,109.11-65.22-24.95,72-95.53,124-178.11,124a200.18,200.18,0,0,1-32.37-2.68L446.1,610.31Zm236.37-61.26c-35.52-55.27-45.15-104.69-46.1-174.8,32.68,32.69,53,77.06,53,126a172.76,172.76,0,0,1-6.95,48.8Zm-228,126.63C373.79,655.31,314.1,584.26,314.1,500.25a175.44,175.44,0,0,1,41.37-113l1.58,29.53,7.58-3.48,89.84,262.43Zm57.95-424.27a5.46,5.46,0,0,0,.31-2.21v-2.37h.64a3,3,0,0,0,1.26-.16v2.53a4.64,4.64,0,0,0,.32,2.21Zm23.05,2.05a12.71,12.71,0,0,0,.95-4.26v-6.79c10.26,4.89,26.21,6.31,37,6.16l-.63-1.11c.15,0,.15,0,.15.32,8.37,7.73,27.16,12.79,39.64,14.37,7.26,8.84,24.79,16.42,36.63,19.42,5.68,9.94,22,19.73,33,24.63,4.26,10.42,18.63,22.74,28.89,29.05,2.69,11.06,15,25.27,24.16,32.84.95,11.37,10.74,27,18.63,36.16-.94,11.21,6.48,28.11,12.95,38.22-1.58,6.78-.47,15.94,1.74,24.47H761.9a10.76,10.76,0,0,0-4.42,1.1c-15-111.47-106.74-200.21-222-214.58Zm223.9,234a7.3,7.3,0,0,0,2.53.47h3.47v1.74H761.9c-.79,0-1.74.31-2.37.31,0-.79-.16-1.58-.16-2.52Zm.16,23c.63,0,1.58.16,2.37.16h3.47v1.73H761.9a14.09,14.09,0,0,0-2.53.48c0-.79.16-1.74.16-2.37Zm-2,22a10.16,10.16,0,0,0,4.42,1.1h6.16c-1.58,7.42-1.9,15-.48,20.69l.48.63c-6.16,10.42-13.43,27.16-12.32,38.21-7.58,9.16-17.53,24.95-18.16,36.16-9.16,7.89-21.47,22.1-23.84,33-10.11,6.63-24.32,18.79-28.42,29.37-11.21,5-27.16,15.15-32.84,24.94-11.85,3.32-29.22,10.9-36.48,19.9-12,1.58-30.32,6.63-38.84,14.53-12.32-.32-31.11,2.21-40.74,8.52v-8.37a11.07,11.07,0,0,0-.95-4.1c115.27-14.53,207-103.11,222-214.58ZM515,748.94a5.33,5.33,0,0,0-.32,2.21V754h-1.9v-2.85a5.49,5.49,0,0,0-.31-2.21Zm-23.69,0c0,.64-.16,1.58-.16,2.21V754h-2.05v-2.85a10.33,10.33,0,0,0-.16-2.21Zm-22.74-1.73a7.09,7.09,0,0,0-1.1,3.94v6.79c-10.26-4.58-26.37-6.31-37.26-5.84l.63.79h-.16c-8.37-8-27.16-13.1-39.63-14.68-7.27-8.69-24.79-16.11-36.63-19.43-5.69-9.79-21.95-19.73-33-24.47-4.26-10.58-18.63-22.89-28.89-29.21-2.53-10.9-15-25.1-24.16-32.84-.63-11.21-10.74-27-18.63-35.85.95-11.52-6.63-28.26-13-38.36,1.74-6.79.48-15.95-1.74-24.48h7.11a12.83,12.83,0,0,0,4.11-1C261.36,644.1,353.1,732.52,468.52,747.21ZM244.15,512.73c-.63,0-1.42-.32-2.05-.32h-5v-1.73h5c.63,0,1.26-.16,1.89-.16a10.29,10.29,0,0,1,.16,2.21ZM244,490a4.05,4.05,0,0,0-1.89-.31h-5v-1.74h5c.63,0,1.42-.16,2.05-.16A11,11,0,0,1,244,490Zm2.22-22.26a9.58,9.58,0,0,0-4.11-.79h-6.63c1.58-7.42,1.89-15.16.47-20.84l-.47-.64c6.16-10.1,13.42-27,12.31-38,7.58-9,17.53-25.1,18.16-36.16,9.16-7.89,21.48-22.1,23.85-33.16,10.1-6.47,24.31-18.79,28.42-29.36,11.21-4.9,27.15-15,32.84-25,11.84-3.16,29.21-10.9,36.31-19.9,12.16-1.58,30.8-6.47,39-14.37,12.31.16,31.57-2.21,41.05-8.84v8.53a8.17,8.17,0,0,0,1.1,4.26C353.1,267.83,261.36,356.25,246.21,467.73ZM488.89,251.41a8.94,8.94,0,0,0,.16-2.21v-2.37H490a3,3,0,0,0,1.1-.16v2.53c0,.63.16,1.58.16,2.21Zm-21.47-15.79c-.63.47-1.42,1.1-2.21,1.58-5,3.47-11.21,5.05-17.37,6.31a135.76,135.76,0,0,1-18.16,2.06,18.53,18.53,0,0,1,2.21-3.16c1.11-1.58,2.37-3,3.48-4.58,4.57-5.84,12.79-8.05,19.89-9.63l3.32-.48c2.84-.15,6-.31,8.84-.31v8.21Zm69-8.68a23.43,23.43,0,0,1,4.58.47l3.32.31c7.1,1.11,15.31,3.48,19.89,9.32,1.26,1.42,2.37,3,3.63,4.58a19.27,19.27,0,0,1,2.21,2.84,119,119,0,0,1-18.31-1.58c-5.37-1.1-10.58-2.37-15.32-5V226.94ZM772.48,533.57h12a36.73,36.73,0,0,1-.48,14.37l-.63,3.32a71.26,71.26,0,0,1-6.31,15.31,66.46,66.46,0,0,1-5.22-12.63c-1.57-6-.94-12.16.16-18a6.94,6.94,0,0,1,.48-2.37ZM536.42,773.1v-8.53l1.89-1.42c5.06-3.47,11.21-4.89,17.37-6.31A98.4,98.4,0,0,1,574,755.1c-.79.95-1.58,2-2.21,2.84-1.26,1.58-2.53,3.16-3.63,4.58-4.58,6-12.79,8.37-19.9,9.63l-3.31.48a78.65,78.65,0,0,1-8.53.47Zm-69,.47c-1.58,0-3.16-.31-4.58-.31l-3.63-.32c-6.95-1.42-15.32-3.63-19.9-9.47a50.69,50.69,0,0,0-3.63-4.58,19.81,19.81,0,0,1-2.21-2.84,102.36,102.36,0,0,1,18.32,1.74c5.52.79,11,2.21,15.63,5.05v10.73Zm-236.53-240c.47,1.9.79,4.11,1.26,6.32,1.11,5.68,1.74,11.84.48,17.68a67.76,67.76,0,0,1-5.06,12.79,61.55,61.55,0,0,1-6.63-15.16l-.79-3.31c-1.1-5.84-1.73-12.63.48-18.32Zm.16-66.63h-12a37.25,37.25,0,0,1,.47-14.53l.63-3.16a56.3,56.3,0,0,1,6.48-15.15,72.52,72.52,0,0,1,5.05,12.63c1.58,5.68.95,11.84,0,17.84a19.25,19.25,0,0,1-.63,2.37Zm541.9,0a43.55,43.55,0,0,1-1.58-6.16c-1.1-5.84-1.73-12-.47-17.68a64.27,64.27,0,0,1,5.05-13,60,60,0,0,1,6.63,15.31l.79,3c1.11,6,1.74,12.8-.47,18.48ZM245.26,399c-.32-2.05-1.11-3.79-1.42-5.68-2.06-7.11,1.1-14.69,4.58-20.84l1.42-2.85c3.15-4.58,6.63-9.15,11-12.63a55,55,0,0,1,.79,13.58c-.32,5.84-2.84,11.53-5.37,16.74a96.37,96.37,0,0,1-9.95,15.16c-.47-1.27-.79-2.37-1.1-3.48Zm19.58-36.63c-.32-1.74-.32-3.63-.48-5.68-.94-7.27,3.32-14.21,7.74-19.9l1.9-2.68a56.9,56.9,0,0,1,12.94-10.9,77.51,77.51,0,0,1-1.26,13.58c-1.42,5.84-4.74,10.9-8.21,15.95a97.06,97.06,0,0,1-12,13.42c-.16-1.11-.48-2.37-.63-3.79Zm25.1-33c0-2.05.32-4,.32-5.68.31-7.42,5.68-13.9,10.74-18.64l2.52-2.36a55.74,55.74,0,0,1,14.21-9,71.05,71.05,0,0,1-3.16,13.11c-2.21,5.68-6.47,10.26-10.57,14.68A124.27,124.27,0,0,1,289.94,333a29.31,29.31,0,0,1,0-3.63Zm30-29.21c.32-1.9.63-3.95,1.11-5.69,1.58-7.1,7.74-12.63,13.58-16.73l2.68-2.06a54.34,54.34,0,0,1,15.79-6.78,68.09,68.09,0,0,1-5.52,12.47c-3,5.21-7.9,9.47-12.64,12.95a110.7,110.7,0,0,1-15.63,9.47,14.87,14.87,0,0,1,.63-3.63Zm33.95-24.48a48.83,48.83,0,0,0,2.21-5.52c2.69-6.95,9.63-11.37,15.95-14.84l3.16-1.27a59,59,0,0,1,16.42-4.58A61,61,0,0,1,384.36,261c-3.78,4.9-9.15,8-14.68,10.9a85,85,0,0,1-16.89,7.1,13.76,13.76,0,0,0,1.1-3.32Zm37.74-19.42c1.1-1.73,1.89-3.31,2.84-5.05,3.63-6.63,11.37-10.11,18.16-12.32l3.32-1.1a67,67,0,0,1,16.89-2.21,52.61,52.61,0,0,1-9,10.58c-4.42,4.1-10.26,6.79-16.11,8.68a112.21,112.21,0,0,1-17.84,4.58c.63-1.1,1.11-2,1.74-3.16ZM233.26,565.94a29.38,29.38,0,0,1,1.58-3.32,127.3,127.3,0,0,1,7.42,16.27c1.89,5.68,3.63,11.52,3,17.52a48.76,48.76,0,0,1-2.85,13.27,56.49,56.49,0,0,1-8.68-14l-1.42-3c-2.37-6.63-4.26-14.52-1.42-21.31.79-1.74,1.42-3.47,2.37-5.37Zm14.05,38.69c.47-1.11.63-2.37,1.11-3.48A144.68,144.68,0,0,1,258.52,616c2.53,5.37,5.21,11.06,5.69,16.9a65.26,65.26,0,0,1-.79,13.58A55.49,55.49,0,0,1,252.36,634l-1.73-2.84c-3.32-6.31-6.64-13.74-4.74-20.84.47-1.9,1-3.63,1.42-5.68Zm20.05,36.15a25.84,25.84,0,0,1,.48-3.47,100.72,100.72,0,0,1,12.31,13.42c3.48,4.74,6.79,9.79,8.37,15.63a77.52,77.52,0,0,1,1.27,13.58,57.16,57.16,0,0,1-13-10.89l-2.21-2.69c-4.11-5.37-8.53-12.47-7.9-19.58l.63-6Zm25.42,33.16c0-1.42-.15-2.52-.15-3.79a126,126,0,0,1,14.21,11.37c4.42,4.42,8.52,9,10.74,14.53a63.42,63.42,0,0,1,3.47,13.26,56.44,56.44,0,0,1-14.37-9l-2.68-2c-5.06-5-10.58-11.53-10.74-18.63-.16-2.06-.48-3.79-.48-5.69Zm30.32,28.9a37.37,37.37,0,0,1-.63-3.79,120.6,120.6,0,0,1,15.63,9.47c4.9,3.48,9.63,7.42,12.95,12.63a84.76,84.76,0,0,1,5.53,12.79,66.94,66.94,0,0,1-15.8-6.79l-2.84-2c-5.68-4.1-12-9.63-13.58-16.58-.47-2-.94-3.79-1.26-5.68Zm34.26,24.31c-.31-1.42-.78-2.52-.94-3.63a142.32,142.32,0,0,1,16.73,6.79c5.53,2.84,11.06,6.16,15,11.05a70.44,70.44,0,0,1,7.11,11.53,60.64,60.64,0,0,1-16.42-4.58l-3-1.26c-6.63-3.32-13.58-7.74-16.27-14.69-.63-1.73-1.42-3.47-2.21-5.21Zm37.9,19a35.12,35.12,0,0,1-1.74-3.31,113.72,113.72,0,0,1,18,4.42c5.69,2,11.69,4.42,16.27,8.52a84.91,84.91,0,0,1,9,10.58,57.76,57.76,0,0,1-17.21-2.21l-3-1c-6.95-2-14.69-5.68-18.48-12a52.57,52.57,0,0,0-2.84-5ZM770.42,434.57a14.19,14.19,0,0,0-1.42,3.16,88.3,88.3,0,0,1-7.73-16.11c-1.9-5.68-3.79-11.68-3-17.52a50.77,50.77,0,0,1,2.84-13.43,70.08,70.08,0,0,1,9,14.22l.95,2.84c2.52,6.63,4.42,14.68,1.57,21.31-.63,1.74-1.57,3.79-2.21,5.53Zm-14.21-38.84a12.91,12.91,0,0,1-1.1,3.47,104.88,104.88,0,0,1-9.79-14.84c-2.84-5.21-5.53-10.9-6-16.9a55.44,55.44,0,0,1,.95-13.58,61.2,61.2,0,0,1,10.89,12.79l1.74,2.85c3.31,6.15,6.63,13.58,4.58,20.52a50.14,50.14,0,0,1-1.27,5.69Zm-20.05-36.16a24,24,0,0,1-.47,3.47,105.88,105.88,0,0,1-12.16-13.1c-3.63-5.06-6.95-10.11-8.53-15.95a77.51,77.51,0,0,1-1.26-13.58,61.86,61.86,0,0,1,13,10.89L728.9,334c4.1,5.53,8.52,12.47,7.89,19.74l-.63,5.84Zm-25.42-33a27.56,27.56,0,0,1,.16,3.63,87.94,87.94,0,0,1-14.21-11.37c-4.11-4.26-8.37-9-10.74-14.37A67.61,67.61,0,0,1,682.47,291a61,61,0,0,1,14.37,9l2.69,2.21c5.05,5.06,10.42,11.37,10.89,18.63,0,1.9.32,3.95.32,5.69Zm-30.32-28.9a27.32,27.32,0,0,1,.63,3.63A104.6,104.6,0,0,1,665.42,292c-4.89-3.63-9.63-7.42-12.94-12.79a66.72,66.72,0,0,1-5.37-12.48c5.52,1.27,10.73,3.95,15.63,6.79l2.84,1.74c5.84,4.27,12,9.63,13.58,16.74.47,1.89.79,3.95,1.26,5.68ZM646,273.51l1.42,3.32a100.83,100.83,0,0,1-17-6.79c-5.53-2.84-11-6.16-14.68-10.74a67,67,0,0,1-7.43-11.84A57.66,57.66,0,0,1,624.69,252l3.15,1.42c6.48,3.16,13.42,7.74,16.11,14.53.63,1.89,1.42,3.63,2,5.52Zm-37.74-18.94a13.07,13.07,0,0,1,1.74,3,95.39,95.39,0,0,1-17.84-4.42c-5.84-1.9-11.84-4.43-16.42-8.53a63.33,63.33,0,0,1-9-10.42c5.68-.32,11.68.79,17.21,2.05l3.16.95c6.78,2.37,14.52,5.68,18.31,12,.79,1.74,1.9,3.47,2.84,5.37ZM772,562.62c1,1.74,1.58,3.79,2.37,5.53,2.84,6.47,1.11,14.68-1.26,21.16L772,592.47a62.16,62.16,0,0,1-8.68,13.89,52.67,52.67,0,0,1-3.16-13.1c-.63-6.16,1-12,2.84-17.69a108.41,108.41,0,0,1,7.42-16.26c.48,1.1,1.11,2.21,1.58,3.31Zm-13.73,39a32.25,32.25,0,0,1,1.42,5.53c2,7-1.11,14.53-4.27,20.69l-1.89,2.84c-3,4.58-6.48,9.32-10.9,12.79a55.9,55.9,0,0,1-.78-13.58c.31-6,2.84-11.69,5.68-16.9a91.73,91.73,0,0,1,9.63-14.84c.32,1.11.79,2.21,1.11,3.47Zm-19.58,36.32c.31,2.06.31,3.79.47,5.69,1,7.26-3.32,14.21-7.74,19.89l-1.89,2.69a56.55,56.55,0,0,1-12.79,10.89,68.24,68.24,0,0,1,1.1-13.58c1.42-5.84,4.74-10.89,8.21-15.63a98.46,98.46,0,0,1,12-13.58c.16,1.26.48,2.37.64,3.63ZM713.58,671.1c0,1.89-.31,3.95-.31,5.84-.32,7.27-5.69,13.58-10.74,18.63l-2.37,2.21a64.35,64.35,0,0,1-14.37,9A77,77,0,0,1,689,693.52c2.21-5.68,6.47-10.26,10.74-14.68a110.75,110.75,0,0,1,14-11.53,28.87,28.87,0,0,1-.16,3.79Zm-29.84,29.21c-.48,1.9-.79,3.79-1.27,5.53-1.57,7.26-7.73,12.79-13.42,16.89l-2.84,1.9a68.66,68.66,0,0,1-15.47,7.1A60.34,60.34,0,0,1,656,718.94c3-5.21,7.89-9.16,12.63-12.94a104.66,104.66,0,0,1,15.63-9.32,28.17,28.17,0,0,1-.47,3.63Zm-34.11,24.63c-.63,1.74-1.58,3.48-2.21,5.37-2.37,6.79-9.63,11.53-15.95,14.69l-3.15,1.42A58,58,0,0,1,611.89,751a84.7,84.7,0,0,1,7.27-11.69c4-4.74,9.16-8,14.68-10.89a88.14,88.14,0,0,1,16.9-6.95,14.92,14.92,0,0,0-1.11,3.47Zm-37.74,19.27a50.51,50.51,0,0,1-2.84,5c-3.63,6.47-11.37,10.1-18.16,12.47l-3.31.79c-5.53,1.42-11.21,2.53-16.9,2.21a81.53,81.53,0,0,1,9-10.42c4.42-4.26,10.27-6.63,16-8.84a143,143,0,0,1,18-4.58c-.63,1.11-1.1,2.21-1.74,3.32ZM512.73,227.72h.64a3.23,3.23,0,0,0,1.26-.15v14.21c-.32,0-.79-.16-1.26-.16h-.64v-13.9Zm-21.63-.15v14.21c-.47,0-.79-.16-1.1-.16a2.33,2.33,0,0,0-.95.16V227.72H490a3.21,3.21,0,0,0,1.1-.15Zm21.63,531.48h1.9V773.1h-1.9V759.05Zm-21.63,0V773.1h-2.05V759.05h2.05Zm294-248.37v1.73H770.74v-1.73Zm0-21H770.74v-1.74h14.37v1.74Zm-553.43,21v1.73H217.31v-1.73Zm0-21H217.31v-1.74h14.37v1.74Zm147.16-86.22-18.95,8.21-1.58-31.89,20.53,23.68Zm70.42,250.27,11.37,5.69,6.16,18-11.21-5.53-6.32-18.16Zm-15.79-46,11.37,5.37,6.16,18-11.21-5.52-6.32-17.85Zm-16.1-46.26,11.68,5.53,6.16,17.84L424,579.68l-6.63-18.16Zm-15.64-46.26,11.53,5.52,6.16,18-11.21-5.21-6.48-18.31Zm-15.79-46.11,11.53,5.68,6.16,18-11.21-5.52-6.48-18.16ZM370.15,423l11.53,5.53,6.16,18-11-5.53-6.64-18ZM560,415.46c24.79-19.1,37.73-25.42,70.1-33.31,0,5.53.32,10.73.48,15.79-31.27,7.26-44.69,13.42-72,33-.32.16.47-7.58,1.42-15.48ZM556.79,450c25-19.42,43.1-26.21,74.84-33.94.48,5,1.11,10.26,1.74,15.63-30.63,6.94-49.74,14.68-76.58,34.1V450ZM556,481.62c26.37-18.15,47.53-27.47,79.58-36l.47,2.05c.79,5.06,1.9,9.79,3,14.69-31.73,7.26-53.37,16.58-81,36.32a48.32,48.32,0,0,1-2-17.06Zm4.26,36.16c24.48-18.95,50.06-30.31,82.9-38.84l5.37,16.42c-31.58,6.63-58.11,18.79-85.27,39l-3-16.58Zm11.85,47.53c-1.74-4.9-3.32-9.63-4.9-14.53,24.95-18.63,53.21-32.21,87-40.89l.16.31c1.74,4.42,3.79,8.69,5.68,12.79-30,8.37-59.52,23.69-87.94,42.32Zm-60.32,15.31c16.74-7.42,34.42-15.15,48.47-14.68l1.11,3.95c-15.79,9.79-33.79,20.05-51.32,28.89-.79-4.89.32-11.68,1.74-18.16ZM514,613.94c56.37-19.1,97.89-54.79,152.68-77.84,2.69,4.58,5.22,9,7.9,13.42-38.21,18.16-64,32.21-108.63,60.63-22.58,14.21-46.74,15.48-52,3.79Zm-66.48-34.26c30-21.16,77.37-50.37,110.69-39.32,1.42,4.74,2.68,9.63,4.26,14.37-27-12-75.63,11.84-112.1,39.47l-2.85-14.52Zm-8.36-31.11c30-22.89,81.15-46.89,114.47-32.52.63,4.26,1.42,8.68,2.21,12.78-24.47-12.78-78.79,7.9-112.74,32.85l-3.94-13.11ZM430,520c30.31-24.31,84.47-48.63,121.11-33.79.15,4.74.31,9.63.78,14.69-26-13.42-82.73,5.05-118.26,31.1L430,520Zm84.63,216.48-1-22.42a13.09,13.09,0,0,1-3.94,3.47c-1.58.63-3.32-.79-2.37-3.31,1.26-3.64,4.1-3.16,5.52-11.21.48-2.22.63-4.58,1.11-7.27.79-4,5.84-3.79,6,0l1.74,40.11-7.11.63ZM302.73,530.89l-7.26.79-1-6.95,7.26-1,1,7.11Zm33.48,81.16-6.16,3.79-3.95-6.16,6.16-3.63,3.95,6Zm21.47,45.16-4.58-4.58a10.37,10.37,0,0,0,3.32-6.48c.31-5.37-7.27-13.42-12.32-15a6.9,6.9,0,0,0-7,1.58c-2.84,2.84-.79,6.16,1.27,9.32,4.89,7.42,9.63,13.58,9.31,18.47-.31,5.84-6.79,10.9-13.58,10-8.52-1.26-17.84-12-18.31-19.58-.32-3.48,1.26-6.47,4.42-9.47l4.1,4.42a8.55,8.55,0,0,0-2.36,5.68c0,4.11,7.1,11.53,11.36,13,4.43,1.26,7.9-1.9,7.58-4.9-.31-5.52-11.68-16.73-12-24.16-.15-5.52,6.16-11.68,14.21-10.42,8.37,1.27,19.74,12.48,19.74,21.32q0,5.93-5.21,10.9ZM324.84,373.15l-6.79,8.21,14.68,11.37-3.94,4.58-34.27-26.69L308.73,354c5-6,11.84-10.89,19.27-5.52,7.73,5.84,5.52,14.05.79,19.89l22.73,1.11-4.89,5.36-21.79-1.73Zm-13.9-13.74-8.21,9.79,11,8.84,8.22-10c4.26-5.21,8.52-10.42,2.05-14.68-5.05-3.32-9.32,1.26-13.11,6Zm-24,184.74c-.16-.16,12-3,20.06,7.74,5.84,7.58,7.73,19.26,2.52,27-6.16,9-21.95,14.21-32.68,7.42-7.11-4.74-12.16-15.16-10.9-24.47,1.42-11.06,10.58-14.06,10.74-13.9l1.89,6c-7.1,3.47-8.05,10.89-5.84,17.53,2.84,8,10.11,14,21.48,10.73s14.21-12.47,11.36-21c-4.1-13.1-16.57-10.73-16.73-11.05l-1.9-6ZM317.1,424.78c-5.84,15.63-19.42,18.63-31.11,13.89-10.42-4.1-17.05-14.21-13.1-26.84,4.26-13.42,16.42-22.42,32.05-15.94,10.42,4.42,17.53,14.52,12.16,28.89Zm-28.89,7.9c8.68,3.63,18.63,2.52,23.52-10.11,3.95-10.26-1.73-18-10.1-21.16-11.37-4.26-19.11,1.58-22.43,9.95-3.15,8.05-1.89,16.74,9,21.32Zm72.31-71.06-30-30.95,4.58-4.1,29.84,31.1-4.42,3.95Zm11.37-12.32-23.21-35.84,6.95-4.42,43.26,16.42L379.15,295l5.06-3.32,23.21,36-7.11,4.27-43.1-16.58L376.94,346l-5.05,3.31Zm47.37-66.63,13.58,34.42-5.68,2.06-13.9-34.43-15.47,5.85-2.06-5.21,36.79-13.58,2.22,5.05-15.48,5.84Zm33.48,27-5.53-42,6.16-.95,2.21,17.06,26.52-3.16-2.05-16.89,6.16-.64,5.21,42-6.16.64-2.37-19.43-26.52,3,2.52,19.43-6.15.94Zm49.42-4.1.94-42.32h6.16l-.79,42.48-6.31-.16Zm11.36-1.42,28.11-38.06,6.63,1.11L559.79,312l-6.32-1.1L550,298.3l-22-3.94-7.89,10.89-6.64-1.1Zm18-14.69,16.9,2.84L543.53,273l-12,16.42Zm33.16,25.11,17.69-38.85L590,279l10.1,44,15.16-33.15,5.53,2.36L602.89,331l-7.57-3.32-10.11-43.89-15.16,33.16-5.37-2.37Zm94.9,64.1,35.53-24.94,11.52,15.16c4.9,6.63,8.06,14.36-.63,20.36-8.68,6.16-15.63.95-20.52-5.68l-7.58-10.42-14.69,10.26-3.63-4.74ZM682,370.31l6.32,8.36c3.94,5.37,8.21,10.58,14.52,5.37,4.74-3.79,1.58-8.84-1.89-13.42l-6.63-9L682,370.31Zm-2.68,33.94,48.47,2.69,2.37,5.84L696.84,446.1l-2.36-5.69,9.47-9.63-8.37-19.9-13.74-.94-2.52-5.69ZM701.74,411l6.47,15.32,14.37-14.21L701.74,411Zm46,67.9-26.06,4.89c-14.21,2.69-19.73-5.52-21.63-14.68-1.89-9.63-.63-19.42,14.84-22.26l25.58-4.74,1.11,6L718,452.57c-9.47,1.74-14.21,5.21-12.16,15.32,1.27,6.31,4.9,11.84,17.06,9.63l23.68-4.42,1.11,5.84Zm-43.58,17.84,43.73,3-.31,5.84-37.9-2.52-1.73,25.73-6-.31,2.21-31.74ZM700,534.52l43.27,7.58-1.11,5.68-43.11-7.26,1-6Zm4,90.32-32.21-19.58,3.31-4.9,32.06,19.42,9-13.58,4.89,2.85-21,32.37-4.89-3L704,624.84Zm-38.84-8.37,18,43.58-4.42,4.58-45.48-15,4.26-4.74,13.27,4.42,15-15.79-5-12.47,4.42-4.58Zm3.16,22.58-11.69,12.31,19.26,6.32-7.57-18.63ZM452.74,720.52l8.05,1.11c0,4.26,4.1,9,12.63,9.94C490.31,733.31,491.1,715,491.1,715c-5.84,5.21-13.42,5.68-20.05,4.26-5.37-1.11-11.05-3-15-8.69-4.42-6.47-2.68-14.68,5.05-18.47,10.42-5.37,26.53-1.42,33.32,5.37,7.42,7.42,6,27.32-3.47,35.21-6.64,5.53-20.69,5.21-29.53.79-6.47-3.32-8.68-8.84-8.68-13Zm35.68-20.21c-4.58-5-15.63-7.26-22.26-3.95-5.37,2.85-7,8.69-1.9,13.42,3.63,3.48,11.69,6.32,18.79,4.43,7.58-1.9,9.79-8.85,5.37-13.9ZM433,727.15l6.31-21.47c0-.16-2.68,1.74-4.89,1.89-1.58,0-2.84-1.73-1.11-3.94,2.21-3,4.74-1.58,8.85-8.84,1.1-1.9,2-4.11,3.47-6.48,1.89-3.47,6.63-1.58,5.53,2.05l-11.37,38.53L433,727.15Zm114.47-42.94a24.87,24.87,0,0,1,30.64,19.58c2.36,13.42-6.64,24-17.85,26.84a24.78,24.78,0,0,1-30.63-18c-3.16-12.48,4.58-25.27,17.84-28.42Zm2.53,5.21c-9.63,1.57-15.79,11.21-13.9,21,2.06,10.1,11.37,16.73,21,15.15a17.7,17.7,0,0,0,14.06-21.15c-1.9-9.95-11.53-16.74-21.16-15Zm-178.58,8.05,13.1-11.37-6.95-15.47,14.85,8.21,12.79-10.9-3.79,15.79,15,8.37-17.21,2.21-3.63,16.42-7.11-15.31-17.05,2.05ZM638.58,694l-17.05-1.9-6.95,15.32L610.79,691l-17-2.21,14.84-8.36-3.47-15.79,12.47,11,14.84-8.37-6.95,15.47L638.58,694ZM288.36,449.1c.16-.16,12.16,2.68,14.53,15.79,1.74,9.47-1.74,20.68-9.95,25.26-9.63,5.37-26.05,2.84-32.37-8-4.42-7.42-4.1-19,1.11-26.85a17,17,0,0,1,15.95-7.58l-.95,6.16c-8.05,0-12.16,6.16-13.11,13.11-1.26,8.52,2.53,17.21,14.21,19.26,11.53,2.21,18.32-4.73,19.74-13.58,2.05-13.58-10.1-17.05-9.95-17.37l.79-6.15ZM619.47,323.25l5.22,3.95a9.91,9.91,0,0,0-2.37,6.79c.31,5.37,9,12.32,14,13.26a6.62,6.62,0,0,0,6.63-2.68c2.53-3.16.16-6.16-2.37-9-6-6.48-11.52-12-11.84-17.05C628.32,312.67,634,306.83,641,307c8.52,0,19.26,9.32,20.84,16.74.63,3.31-.47,6.63-3.16,9.94l-4.58-3.79a8.41,8.41,0,0,0,1.58-6c-.63-3.94-8.68-10.42-13.1-11.05-4.58-.79-7.58,2.84-6.95,5.84,1.1,5.37,14,15,15.32,22.11.94,5.53-4.43,12.47-12.64,12.32-8.52,0-21.31-9.64-22.57-18.32-.48-3.95.78-7.74,3.78-11.53Zm91.9,229.11-1.89,6.16c-2.85-.79-5.21-.79-7.27.16-4.89,2.21-8.52,12.63-7.58,17.84a6.71,6.71,0,0,0,4.74,5.37c3.79,1.1,5.84-2,7.58-5.53,4.1-7.73,7.42-14.84,12-16.89,5.37-2.37,12.79.94,15,7.42,2.84,8.05-2.05,21.47-8.53,25.42-3,1.74-6.47,1.89-10.58.47l2.06-5.68a10.14,10.14,0,0,0,6.16-.47c3.47-1.9,6.78-11.85,6-16.27s-5.21-6-7.89-4.42c-4.58,2.84-9.32,18.32-15.63,21.95-4.9,2.68-13.27,0-15.95-7.58-2.68-8,1.9-23.37,9.63-27.48,3.48-1.89,7.58-2.05,12.16-.47ZM531.21,225.2a1.69,1.69,0,0,0,1.1,1.42v16.11a2.18,2.18,0,0,0-1.1,1.42,2.43,2.43,0,0,0,1.1,1.57v3c0,8.69-13.57,8.69-13.57-.15V227.41l5.68,6c1.11,1.42,2.21,2.05,3.79,1.1,1.26-.78,1.26-2.37.32-3.63l-9.79-13.58v-9.63c0-8.84,13.57-8.84,13.57.16v15.79a2.44,2.44,0,0,0-1.1,1.58Zm-23.53,0a1.7,1.7,0,0,0,1.11,1.42v16.11a2.2,2.2,0,0,0-1.11,1.42,2.45,2.45,0,0,0,1.11,1.57v3c0,8.69-13.58,8.69-13.58-.15V227.41l5.68,6c1.11,1.42,2.21,2.05,3.63,1.1,1.43-.78,1.43-2.37.48-3.63l-9.79-13.58v-9.63c0-8.84,13.58-8.84,13.58.16v15.79a2.46,2.46,0,0,0-1.11,1.58Zm-23.68,0a1.69,1.69,0,0,0,1.1,1.42v16.11a2.18,2.18,0,0,0-1.1,1.42,2.43,2.43,0,0,0,1.1,1.57v3c0,8.69-13.58,8.69-13.58-.15V227.41l5.69,6c1.1,1.42,2.21,2.05,3.79,1.1,1.26-.78,1.26-2.37.31-3.63l-9.79-13.58v-9.63c0-8.84,13.58-8.84,13.58.16v15.79a2.44,2.44,0,0,0-1.1,1.58ZM223.31,482.73c-.63,0-1.11.47-1.58,1.1H205.15a2.42,2.42,0,0,0-1.58-1.1,2.47,2.47,0,0,0-1.58,1.1h-3.15c-9,0-9-13.26.15-13.26H221.1l-6.32,5.53c-1.42,1.1-2.05,2-1.26,3.63.95,1.26,2.53,1.26,3.95.47l14.05-9.63h10.11c9.15,0,9.15,13.26-.32,13.26H225.05a2.74,2.74,0,0,0-1.74-1.1Zm0,22.74c-.63,0-1.11.47-1.58,1.1H205.15a2.42,2.42,0,0,0-1.58-1.1,2.47,2.47,0,0,0-1.58,1.1h-3.15c-9,0-9-13.26.15-13.26H221.1l-6.32,5.52c-1.42,1.11-2.05,2.21-1.26,3.63.95,1.27,2.53,1.27,3.95.48l14.05-9.63h10.11c9.15,0,9.15,13.26-.32,13.26H225.05a2.74,2.74,0,0,0-1.74-1.1Zm0,23.21c-.63,0-1.11.47-1.58,1.1H205.15a2.42,2.42,0,0,0-1.58-1.1,2.47,2.47,0,0,0-1.58,1.1h-3.15c-9,0-9-13.26.15-13.26H221.1l-6.32,5.53c-1.42,1.1-2.05,2.05-1.26,3.63.95,1.26,2.53,1.26,3.95.47l14.05-9.63h10.11c9.15,0,9.15,13.26-.32,13.26H225.05a2.74,2.74,0,0,0-1.74-1.1Zm563.54-45.95c-.64,0-1.11.47-1.58,1.1H768.69a2.92,2.92,0,0,0-1.58-1.1,2.69,2.69,0,0,0-1.74,1.1h-3c-9,0-9-13.26.16-13.26h22.1l-6.47,5.53c-1.26,1.1-2,2-1.1,3.63.94,1.26,2.52,1.26,3.94.47l14.06-9.63H805c9.32,0,9.32,13.26-.15,13.26H788.42a2.43,2.43,0,0,0-1.57-1.1Zm0,22.74c-.64,0-1.11.47-1.58,1.1H768.69a2.92,2.92,0,0,0-1.58-1.1,2.69,2.69,0,0,0-1.74,1.1h-3c-9,0-9-13.26.16-13.26h22.1l-6.47,5.52c-1.26,1.11-2,2.21-1.1,3.63s2.52,1.27,3.94.48l14.06-9.63H805c9.32,0,9.32,13.26-.15,13.26H788.42a2.43,2.43,0,0,0-1.57-1.1Zm0,23.21c-.64,0-1.11.47-1.58,1.1H768.69a2.92,2.92,0,0,0-1.58-1.1,2.69,2.69,0,0,0-1.74,1.1h-3c-9,0-9-13.26.16-13.26h22.1l-6.47,5.53c-1.26,1.1-2,2.05-1.1,3.63.94,1.26,2.52,1.26,3.94.47l14.06-9.63H805c9.32,0,9.32,13.26-.15,13.26H788.42a2.43,2.43,0,0,0-1.57-1.1ZM531.21,769.31c0,.63.47,1.11,1.1,1.58v16a2.42,2.42,0,0,0-1.1,1.58,2.22,2.22,0,0,0,1.1,1.42v3c0,8.68-13.57,8.68-13.57-.16V771.52l5.68,6.16c1.11,1.26,2.21,1.9,3.79,1.11a2.59,2.59,0,0,0,.32-3.79l-9.79-13.58v-9.63c0-8.85,13.57-8.85,13.57.15v15.79a2.47,2.47,0,0,0-1.1,1.58Zm-23.53,0c0,.63.48,1.11,1.11,1.58v16a2.44,2.44,0,0,0-1.11,1.58,2.25,2.25,0,0,0,1.11,1.42v3c0,8.68-13.58,8.68-13.58-.16V771.52l5.68,6.16c1.11,1.26,2.21,1.9,3.63,1.11A2.48,2.48,0,0,0,505,775l-9.79-13.58v-9.63c0-8.85,13.58-8.85,13.58.15v15.79a2.49,2.49,0,0,0-1.11,1.58H484c0,.63.47,1.11,1.1,1.58v16a2.42,2.42,0,0,0-1.1,1.58,2.22,2.22,0,0,0,1.1,1.42v3c0,8.68-13.58,8.68-13.58-.16V771.52l5.69,6.16c1.1,1.26,2.21,1.9,3.79,1.11a2.58,2.58,0,0,0,.31-3.79l-9.79-13.58v-9.63c0-8.85,13.58-8.85,13.58.15v15.79a2.47,2.47,0,0,0-1.1,1.58Z" transform="translate(-89.57 0.91)" fill="#1d1d1b" fill-rule="evenodd"/><path d="M315.84,711.36l-63.16,67.27a86.34,86.34,0,0,1-6.63-6.63l62.05-65.37a75.13,75.13,0,0,1-6.63-5.21L240.2,765.68C217,740.42,202.31,712.47,190.78,685c10.27-6.48,26.21-10.27,40.11-12.48-49.26-24.63-93.95-62.21-114.95-99.32-15.32,56.06-10.58,115.43,14.37,175.59,5.68-12.32,9.63-28.74,22.42-36.64,17.68,32.69,36.32,61.11,56.69,86.06l-56.69,59.37c-16.74,17.84,6.47,33.94,22.89,16.26l51.32-55.42c34.74,37.89,74.21,65.53,119.69,83.37,39.47,15.47,69.47,19.74,93.63,32.68,25.42,13.58,50.53,36.16,61.74,65.53,10.89-29.37,36.16-52,61.58-65.53,24-12.94,54.32-17.21,93.47-32.68,45.79-17.84,85-45.48,120-83.37l51,55.42c16.42,17.68,39.79,1.58,23.21-16.26l-56.69-59.37a568,568,0,0,0,56.69-86.06c12.47,7.9,16.42,24.32,22.42,36.64,24.63-60.16,29.68-119.53,14.21-175.59-21,37.11-65.68,74.69-114.95,99.32,13.9,2.21,30,6,39.95,12.48-11.53,27.47-26.21,55.42-49.42,80.68l-61.27-64.42a60.79,60.79,0,0,1-7.26,5.21l62.68,65.68-6.47,6.48-64.42-67.74c-.47.16-1.11.47-1.74.63a18.14,18.14,0,0,1-2.84,4.58l62.68,67.42c-31.57,26.53-75.31,48.48-139.26,60C571.16,850,538,827.1,525.84,803.26h-.47c-5.84,0-10.74-4.58-10.74-10.1v-6.95h-1.9v6.95c0,5.52-4.89,10.1-10.73,10.1-6.16,0-10.9-4.58-10.9-10.1v-6.95h-2.05v6.95c0,5.52-4.74,10.1-10.74,10.1h-.47C465.68,827.1,432.52,850,398.1,843.52c-64-11.52-107.68-33.47-139-60l63.32-68.21c-.32-.47-.47-.95-.79-1.42a46,46,0,0,1-5.84-2.53ZM215.73,804.84c2.21,2.68,4.11,5,6.32,7.42l-50.21,53c-5.37,5.85-13.74,0-7.11-6.94l51-53.53ZM198.2,738.68c36.79,54.63,85.58,96,119.85,114.48,47.68,25.42,103.42,40.1,136.42,39.15,24.79-.63,40.26-36.94,47.21-55.89V957.21c-5.84-17.21-24.63-51.79-45.47-55.11-11.69-1.89-84.48-6.94-149.21-44.05-35.53-20.37-76.43-53.68-119.06-115.11a559.25,559.25,0,0,1-31.89-51.31c-1.9-3.48-3.79-4.27-7-1.74-4.26,3.47-10.11,12.47-15.79,24.47-1.42,3.16-4.11,2.06-2.84-1.1,11.21-30.16,11.68-58.27-3-94.27-3.32-8,0-9.47,3.47-1.58,14.84,32.37,19.26,45.32,67.26,49.59,5.37.47,4.43,3.31-.63,3.78-6.31.79-20.21,1.27-27.47,4.9-4.26,2.21-5.53,5.37-2.69,10.89a537.6,537.6,0,0,0,30.79,52.11ZM838,683.57c4-11.05-22.73-11.68-32-12.79-6.63-.63-4-3.47-1.58-3.63,49.42-4.26,53.53-17,68.69-49.89,3.79-8.37,6.94-7,3.47,1.42-15,36.31-14.37,64.58-2.84,94.89.95,2.85-2.05,3.64-2.69,2.06-9.47-20.53-19.26-32.53-22.42-25.27-5.05,12-28.26,48.64-45.79,71.53-42,55.42-106.26,113.37-205.89,133-24.16,4.74-53.53,8.21-62.53,7.58-11.06-.79-11.53-6-1.26-8,9.15-1.74,29.52-1.58,62.36-8.21,98.06-20.06,158.69-76.27,198.32-129.95,17.53-24,40.11-61.58,44.21-72.64L789.06,805.15l51,53.37c6.47,6.79-1.58,12.64-7.11,7L782.9,812.26c1.89-2.37,4.1-4.74,6.16-7.11L838,683.57Z" transform="translate(-89.57 0.91)" fill="#e20613" fill-rule="evenodd"/><path d="M291.21,310a58.92,58.92,0,0,1,15.63-15c-10.27-20.69-.16-59.21-19.74-83.84L190.78,88.46A534,534,0,0,0,89.57,177.83L207.68,282.67c22.89,20.37,59.37,2.84,83.53,27.32ZM202.63,198c26.84,26.21,60.79,50.05,78.63,46.11-.32,20.21,3.95,38.36,18.16,54.79-19.11-11.85-39.16-21.64-60-21.48,5.84-20-15.79-52.26-36.79-79.42Zm-69.16,10.74c-4.74-4.27,0-8.85,4.26-5.06l76.58,68.69c6.16,5.53,10.42,6.16,15.79,7.58,7.58,2.21,10.26,5.05,4,5.21-13.74.31-20.53-4.42-25.58-9l-75-67.42ZM697.16,295c6.16,4.58,11.37,10.1,14.37,15.63l.31.16c24-25.58,61.27-7.42,84.48-28.11L914.43,177.83A548.9,548.9,0,0,0,813.21,88.46L716.58,211.15c-19.42,24.63-9.16,63.15-19.42,83.84Zm82.58-156.16c3.63-4.58,8.53-.63,4.89,3.47l-61.89,77.85c-3.32,3.94-4.42,8.21-5,12.47-1.58,8.52-4.11,11.84-4.74,4.74-.79-7.43-1-14.22,6-23.22l60.79-75.31ZM801.37,198c-21,27.16-43,59.37-36.79,79.42-20.84-.16-41.21,9.63-60,21.48,14-16.43,18.32-34.58,18.16-54.79,17.53,3.94,51.47-19.9,78.63-46.11ZM467.42,214.62V207.2c0-5.53,5.05-10.11,10.89-10.11,6,0,10.74,4.42,10.74,10.11V219c.63,0,1.26.16,2.05.16v-12c0-5.53,4.74-10.11,10.9-10.11,5.84,0,10.73,4.42,10.73,10.11v12.47h1.9V207.2c0-5.53,4.9-10.11,10.74-10.11,6.15,0,11,4.42,11,10.11v9.16c23.37-5.53,43.58-16.58,66.32-34.74v-43a230.08,230.08,0,0,0-66-22.89,63,63,0,0,0,29.68-53.37c0-34.74-28.89-63.32-64.26-63.32s-64,28.58-64,63.32a62.81,62.81,0,0,0,29.84,53.37c-22.1,3.94-44.21,11.68-67.74,22.89v43c21.79,15.63,45.64,27.16,67.11,33ZM501.37,32.88c16.73,0,30.31,13.11,30.31,29.53S518.1,92.25,501.37,92.25a30.05,30.05,0,0,1-30-29.84c0-16.42,13.58-29.53,30-29.53ZM463,37C455,48.2,451.79,64.14,458.58,80.41c2.37,5.68-6.16,10.1-8.69,4.42-9.16-18.63-7.42-38.69,6.32-55.27C460,25,467.42,30.83,463,37Zm73.74,13.9c-3.63-6.47,2.84-10.11,6.47-5.05,9.79,14.36,8.21,28.58-2.69,40.1-3.47,3.64-10.1.79-7.26-3.15,7.9-10.74,9.16-22.27,3.48-31.9Zm53.52,89.21c2.53,0,4.74,1.74,4.74,4.11,0,2.21-2.21,3.94-4.74,3.94H430.94c-3.31,0-6.78,2.85-9.31,6.32a23.35,23.35,0,0,0-4.42,11.68c-.48,4.11-6.63,3.64-6.63-.31v-22c0-2.68,2.84-3.79,5.21-3.79H590.26V175.3c2.53,0,4.74,1.74,4.74,3.95s-2.21,4.26-4.74,4.26H415.31c-2.68,0-4.89-2-4.89-4.26s2.21-3.95,4.89-3.95h175V140.09Z" transform="translate(-89.57 0.91)" fill="#e20613" fill-rule="evenodd"/><path d="M498.53,367.94c-42.32,8.84-80.22,27-117.64,50.84a799.42,799.42,0,0,1,33.32,73c30.47-20.05,64.58-38.21,100.74-41.84-7.9-27.16-13.9-53.53-16.42-81.95Zm-49.59,27c19.74,0,35.69,13.89,35.69,31.42,0,17.37-15.95,31.58-35.69,31.58s-35.84-14.21-35.84-31.58c0-17.53,15.95-31.42,35.84-31.42Z" transform="translate(-89.57 0.91)" fill="#e20613" fill-rule="evenodd"/><path d="M397.79,432.52l4.58-6.32,7.89,2.69-4.9-6.64,4.9-6.31-7.89,2.37L397.94,412l-.15,7.58-7.74,2.21,7.74,2.84v7.9Zm21,46,4.1-5.69,6.79,2.53-4.1-5.69,4.1-5.84-6.79,2.05-3.95-5.52v6.79l-6.79,2,6.79,2.37-.15,7Zm74.37-30.8,4.42-5.52,6.79,2.21-4.11-5.69,4.11-5.68-6.79,2.21-3.95-5.68-.16,6.79-6.79,1.89,6.79,2.37-.31,7.1-10.74-50.21,4.74-6.31,7.73,2.68-4.73-6.63,4.73-6.32-7.73,2.37-4.42-6.31-.32,7.58-7.58,2.21,7.58,2.68v8l10.74,50.21Z" transform="translate(-89.57 0.91)" fill="#f8e100" fill-rule="evenodd"/><path d="M453.68,410.25c0-.47-.63-.47-1.26,0a1.77,1.77,0,0,0-.47.32c0-.16-.32,0-.32-.16-.32.16-.79,0-.79.63a.7.7,0,0,0,.16.48c-.16.94.31,1.1.95.63a1.2,1.2,0,0,0,.63-.16c0,.16.79-.32.79-.47a2.37,2.37,0,0,1,.31-.64c-.16-.31-.16-.47,0-.63ZM452.74,448c.31-.16.47.16.78.16a3.21,3.21,0,0,1,.79.47l.16.16.16-.16c0-.16.16-.16.32-.16,1.57.16,1.42,1,2.21,1.74a.73.73,0,0,0,.15.48c.16.15.32.15.32,0s.16-.32.16-.48a14.75,14.75,0,0,1,1.42-3.31c0-.16.16-.16.16,0h.15V447c.16,0,0,.16-.15.32a.16.16,0,0,0-.16.16,2.78,2.78,0,0,1-.32.79c0,.15-.16.15-.16.15-.15.16-.15.16-.15.32-.16.16,0,.16.15,0h.16c.16-.16.16-.16.16-.32h0c0-.31.63-.63.63-1.1a21.09,21.09,0,0,0,1.11-4.89V442h0c.16-.16-.16-.31-.32-.31,0-.16-.16-.16,0-.32h0c0-.16.16-.16.16-.32.16-1.58,2.37-2.52,3.16-3.47a.16.16,0,0,0,.16-.16c0-.16.31-.31.47-.47s.16-.16.31-.16h.16c.16,0,.16-.16.32-.16,3,0,4.1-6.79,4.1-9.79a3.88,3.88,0,0,1-.31-1.26,7.94,7.94,0,0,1-.32-2.05v-.32h0c0-.16.16,0,.32-.16.95-.15,3.47-6.15,3.47-7.1,0-.16-.16-.16-.16-.32h-.15c0-.16,0-.16-.16-.16,0-.15-.16-.15-.16-.31-.16,0-.16-.16-.16-.32h-.16a.6.6,0,0,0-.15-.47c-.32-.16-.32-.47-.48-.63l-.15-.16-.16-.16h-.32a.33.33,0,0,0-.31.32c-.16,0-.16,0-.16-.16h-.16c-.32-.16-.32,0-.63,0a2.53,2.53,0,0,0-1.42-.47v-.16c-.32-.16-.48-.32-.79-.32s-.32,0-.32-.16c-.31-.47-2.05-.79-2.37-.79,0,0,0,.16-.15.16a.34.34,0,0,1-.32.32h-.16c0-.16-.16-.16-.31-.16h0c-.32,0-.32.16-.48,0h-.16c-.15-.32-.15,0-.15,0,0,.16-.16,0-.16,0a.16.16,0,0,0-.16.16h-.47V412h-1.42c-.32,0-1.43.95-1.27.63,0-.16.16-.16.16-.31h-.16a.16.16,0,0,0-.16-.16h0v-.32h.16a.16.16,0,0,0-.16-.16l-.15-.15c-.16,0-.16,0-.32-.16h-.79c-.16,0,0-.32-.16-.32h-2.84c-.47,0-.79.79-1,1.11v.16h-.15v.15l-.16.16h0a3.72,3.72,0,0,1-1.26.32,5.68,5.68,0,0,1-.95.16c-.32,0,0-.32,0-.32h0c-.16,0-.32,0-.32-.16v-.16c0-.15,0-.31-.16-.31V412c-.15,0-.15.16-.15.16v.31c0,.16-.32.32-.48.32a.33.33,0,0,0-.31.32c0,.15-.16.15-.16.31,0,.32,0,.48.16.48l.15.15v.16h.16c.16.16.16.16.16.32h-.16l-.16-.16c-.15,0-.15,0-.15-.16a.16.16,0,0,1-.16-.16c-.16-.15-.16-.15-.16-.31v-.32a1.57,1.57,0,0,1,.16-.63c.16-.16.16-.63.16-.95l.15-.16c.16-.15.16-.31.32-.47V411c0-.16.16-.16.32-.16l.15-.15v-.16c.16-.16,0-.32.32-.47,0-.16.16-.16.16-.32,0-.32.16-.47,0-.63-.32-.32-.63,0-1.11-.32a2.58,2.58,0,0,1-.47-.94h0l-.32-.32a.16.16,0,0,0-.16-.16c-1.73-1.89-.63-.63-1.26.16v.16c0,.47-.16,1.42-.79,1.58-.16,0-.16,0-.16-.16,0-.32-.15,0-.31.16h0a.16.16,0,0,0-.32,0h0a.15.15,0,0,0-.15.15v.16a4.78,4.78,0,0,1-1.58-.16c-.16,0-.16.32-.48.48h-.15c-.16,0-.16-.16-.16,0-.16,0-.16,0-.16.16.16,0,.16.15.32.15h0v.32h-.16l-.16.16c-.16,0-.16-.16-.32-.16a1.16,1.16,0,0,0-.94.31L442,411c0,.16,0,.32-.32.32h-.16c-.15,0-.15,0-.15.16-.16.15-.16.15-.32.15s-.32-.15-.32,0h-.15v.16c-.16,0-.16.16-.32.16h-.47c-1.11,1.11-1.58-1.58-1.58-1.58.31-.63-.16-1.1-.48-1.42l-.15-.16v-.31c0-.16,0-.32-.16-.32-.32.16-1.26.95-1.26,1.26-.16.16-.16.16-.32.16a.16.16,0,0,0-.16.16h-.16a.15.15,0,0,0-.15.16v.16a.61.61,0,0,1-.48.15h-.15l-.16.16v.16a.64.64,0,0,1-.63.31h-1.9s-.16.16,0,.16h.16c.16,0,.16,0,.16.16h.15v.47c.16.16.16.16.32.16,0,.16.16.32.32.48v.15c.15.16.15.16.47.16.95,0,.79.32-.16,1.27-.31.31-.47.31-.63.47-.32.47-.47.95-.95,1.1-.16.16-.31,0-.79,0l-.16-.15h-.63c-.31.15-.63-.32-.79-.79v-.16a.58.58,0,0,0-.47.16l-.47.47c-.64.47-1.27.32-1.9.63h-.16v.32c.16.16.16.16.32.16,0,.31.16.31.32.15h.63c.15.32.15.32,0,.32-2.21,0-.79,1.26-.48,1.74h.48a.15.15,0,0,1,.15.15.34.34,0,0,1,.32.32l.47,3.79c.16.32,0,.32-.31.32-2.05.15-2.69,1.89-2.69,3.47,0,.31,0,.31-.15.31-.63,0-.32,1.43-.32,1.74,0,.16.32.16.79.48.16.15.32.15.32.31.15,0,.15,0,.31.16h.16v.16a.48.48,0,0,1-.16.31l.16.16c.32-.16,1-.32,1.1,0l.16.16h.32c.63,0,1.1-.48,1.58-.63h0v.15c.16.16.16.16.16.48,0,1.42.47.47,1.1.47.16,0,.16-.16.32-.16v-.15a.15.15,0,0,1,.15-.16c.32-.16,2.06-.79,2.06-1.26a.16.16,0,0,0,.16-.16l.15-.16h0c0-.16,0-.16.16-.16l.16-.16c.16-.15.16-.47.32-.47,0,0,0-.16.15-.16.63-.47,1.27-.47,1.58-.16v.16c.16,2.21,4.9,2.53,6.79,2.53.32,0,.63.16.48.31s0,.32.15.32c.16.16.32.32.48.32v.31a.56.56,0,0,1-.16.32c-.32.31.16.79.63,1.1s1.11-.31,1.58-.47l.16-.16V432a2.34,2.34,0,0,1,.47.32c.16.16-.32.47,0,.63.16.63,1.11.63,1.26,1.58,0,.16-.15.32-.15.63s.31,0,.31.16c0,.32-.31.32-.16.47a.59.59,0,0,0,.48.16v.16c.15.16-.16.31-.32.47-.16,0-.16.16,0,.16v.16a.16.16,0,0,0,.16.16c.16,0,.16,0,.16.15l.31.32a.16.16,0,0,1,.16.16h0c0,.47.16.63.16.94a.34.34,0,0,0,.31.32c.79,0,1.27-.79,1.9-.47l2.37,2.05a1.63,1.63,0,0,1,.16.47v.64a.15.15,0,0,0-.16.15V442c0,.16.16.16.47.16,1.58.16.48.79.48,1.89a.16.16,0,0,1-.16.16c-1.11.63-1.9,2.69-2.37,3.79,0,.16.16,0,.32,0Z" transform="translate(-89.57 0.91)" fill="#4c3e81" fill-rule="evenodd"/></svg>